PathFileType	4	(X/Y/Z)	C:\Users\°ÂÌØÂü\Desktop\20210112\bx_n_0_503-Unnamed.trc
DataRate	CameraRate	NumFrames	NumMarkers	Units	OrigDataRate	OrigDataStartFrame	OrigNumFrames
50.00	50.00	       5	0	mm	50.00	209	       333
Frame#	Time	
		

209	4.160	-249.35876	134.39702	1582.59155	-432.53534	288.27020	1338.58948	-502.56790	107.53584	1146.69263	-704.21497	-11.30573	806.67499	-764.85321	142.78178	570.39270	-703.99695	216.86642	797.00262	-793.66479	274.70779	736.36145	-811.87750	255.63367	631.08746	-737.19415	203.92903	536.56073	-819.93817	263.07306	491.24228	-517.91980	-73.01032	143.17534	-764.27441	70.91290	567.90411	-549.57410	-22.65373	162.48338	-675.72321	51.86203	161.66151	-797.58234	183.76830	181.95642	-768.63165	229.74471	203.30347	-590.23267	207.02768	173.12566	-882.50250	295.98264	144.71605	-554.01196	241.36943	165.36247	-652.37262	290.97635	156.33710	-614.85156	297.16904	158.58684	-528.11725	304.05258	146.59148	-413.59656	-64.60471	1339.94409	-903.15460	89.72382	1093.58960	-794.87805	35.66781	173.51974	-811.69879	-50.21743	479.42737	-601.23785	28.57684	167.37729	-875.80023	-78.62018	141.04199	-792.05469	-75.41104	869.17102	-789.80219	-68.62920	751.40155	-725.95764	65.48652	219.19887	-783.10437	-38.75667	610.59753	-782.97314	-36.13632	564.28650	-720.39197	153.31979	220.46101	-676.59100	168.21121	160.69727	-605.66724	-72.23512	157.60674	-648.17993	-67.94416	161.26512	-763.29932	-22.33285	204.01189	-726.50745	12.58079	524.45367				-718.18634	-10.65431	1014.66504				-809.11389	283.28915	870.33392				-794.58582	248.75522	569.24542	
210	4.180	-254.88617	134.05357	1589.66016	-435.32532	288.07751	1343.07227	-503.04755	107.50781	1151.00513	-703.19409	-11.11339	806.83905	-763.66095	142.37878	570.84723	-703.16193	216.62128	797.08386	-792.71777	274.71582	736.48395	-811.05377	255.27954	631.24640	-736.67456	203.60823	536.46130	-819.87054	262.75195	491.52734	-517.89575	-72.86808	143.12724	-763.73926	71.07190	568.33313	-549.58356	-22.56382	162.55954	-675.53778	51.81260	161.33681	-797.38300	183.56793	182.04565	-768.50494	229.77045	203.45667	-590.33563	206.87607	173.19696	-882.68854	296.09561	144.64211	-554.02252	241.58537	165.48668	-652.35529	291.00693	156.45984	-614.95844	297.27432	158.73636	-528.11755	304.11975	146.55650	-416.18759	-64.83734	1344.15930	-902.72925	89.62857	1093.02173	-795.30737	36.38509	173.89780	-811.28058	-50.20829	479.65359	-601.23785	28.57684	167.37729	-875.78961	-78.57214	141.09050	-790.83057	-75.33954	869.23254	-789.38721	-68.40524	751.34955	-726.05164	65.65428	218.72397	-782.53534	-38.85639	610.67358	-782.38068	-36.43386	564.50476	-720.35950	153.18829	220.60390	-676.51477	168.24150	160.57442	-605.63666	-72.35101	157.95184	-648.13763	-67.81501	161.38258	-763.24969	-22.37697	204.22159	-725.97736	12.70187	524.41425	-717.69843	233.96040	1034.84839	-717.35822	-9.64321	1015.32007				-808.45551	283.09491	870.15778				-793.99908	248.41071	569.38959	
211	4.200	-260.54303	133.61371	1596.51978	-437.26035	288.16391	1347.78784	-503.31512	107.26029	1154.91724	-701.83698	-11.00313	806.39813	-762.94501	142.32297	570.84607	-702.03827	216.78369	797.14856	-791.75671	274.80423	736.70313	-810.87842	255.45193	631.53094	-736.34375	203.75923	536.45129	-819.38831	262.55939	491.93542	-517.99066	-73.04592	143.03880	-763.11646	70.96497	568.56555	-549.60834	-22.60264	162.50319	-675.64893	51.78036	161.42224	-797.38910	183.55331	182.21446	-768.43451	229.74915	203.49860	-590.09515	207.00082	173.30391	-882.68854	296.09561	144.64211	-553.97705	241.60016	165.59296	-652.39197	291.10794	156.37669	-615.01300	297.17767	158.67238	-528.19452	304.07355	146.47072	-418.46359	-64.71986	1349.16785	-901.98871	89.31709	1092.60706	-794.85492	35.84791	173.61308	-810.81189	-50.11288	479.57089	-601.21967	28.49743	167.44392	-875.78961	-78.57214	141.09050	-789.93665	-75.24541	869.49860	-788.24420	-68.62873	751.91504	-726.07861	65.95622	218.88048	-781.78491	-38.90248	610.93280	-781.79510	-36.49463	564.77081	-720.23596	153.16972	220.62428	-676.51477	168.24150	160.57442	-605.72980	-72.01028	157.61821	-648.03766	-67.86817	161.28799	-763.48645	-22.38526	204.15970	-725.42175	12.90738	524.59521	-717.43103	233.71017	1035.63232	-716.13916	-10.25538	1016.48334				-807.61011	283.46869	870.58319				-793.54694	247.89864	569.47217	
212	4.220	-266.39764	133.41014	1603.47107	-440.27350	288.13690	1352.58020	-503.85321	107.49000	1158.63159	-700.88141	-10.93797	806.72235	-762.49469	142.59758	571.33313	-701.10864	216.77237	797.08838	-791.02997	274.52539	736.65533	-810.09283	255.61124	631.61835	-735.56171	203.73203	536.58997	-819.11792	262.60400	491.87766	-517.94177	-72.92817	143.09164	-762.69818	71.15311	568.40680	-549.58356	-22.56382	162.55954	-675.71674	51.57338	161.18665	-797.34644	183.37718	182.21292	-768.60791	229.67790	203.44946	-590.09515	207.00082	173.30391	-882.61084	296.10199	144.57719	-553.82141	241.66547	165.64824	-652.32343	291.04437	156.46869	-615.01245	297.05060	158.51512	-528.13251	304.10068	146.50737	-421.05154	-65.29293	1353.73938	-901.87872	89.31408	1092.46741	-794.80774	35.92504	173.48871	-810.34985	-50.18635	479.79147	-601.11566	28.43011	167.40955	-875.76514	-78.74091	141.07993	-788.65808	-75.03814	869.58575	-787.35675	-68.68022	751.81921	-725.97003	65.53105	218.87692	-781.08533	-38.85828	610.93427	-781.27362	-36.50681	564.92297	-720.21191	153.06529	220.59325	-676.51477	168.24150	160.57442	-605.67657	-72.39950	157.87836	-648.23395	-67.87796	161.10909	-763.34015	-22.54494	204.23361	-725.10272	12.71848	524.45099				-715.29590	-9.95277	1017.43250				-806.69073	283.16193	870.81622				-793.53656	247.98355	569.44720	
213	4.240	-272.23694	133.00153	1610.66431	-442.55453	287.57367	1356.98120	-504.05450	107.34102	1162.51685	-699.97034	-11.03641	806.44501	-762.14453	142.78558	570.52002	-700.12183	216.70418	797.02441	-790.08911	274.83679	737.72552	-809.35376	255.38524	631.44708	-734.75104	203.53160	536.44263	-818.54083	262.51129	491.97037	-517.93964	-73.02198	143.22006	-761.87573	71.07065	568.59967	-549.54596	-22.61560	162.54181	-675.60620	51.79426	161.51482	-797.30603	183.33977	182.21837	-768.43451	229.74915	203.49860	-590.09985	206.94852	173.25983	-882.69916	296.16739	144.69322	-553.96790	241.44844	165.58612	-652.31323	291.05737	156.43707	-615.03058	297.26636	158.79582	-528.13629	303.86075	146.51074	-424.31122	-64.65725	1358.07764	-901.37885	89.20335	1092.19446	-794.73987	36.02295	173.58961	-809.87268	-50.24453	480.00024	-601.13184	28.48264	167.55914	-875.85034	-78.68372	141.27127	-787.81561	-74.85667	869.66669	-786.58258	-68.34212	751.98865	-725.89026	66.39420	219.10957	-780.27704	-39.04247	611.26935	-780.48322	-36.06622	564.62897	-720.26892	153.05171	220.47079	-676.51477	168.24150	160.57442	-605.88892	-72.15638	157.64659	-648.10577	-67.75024	161.06390	-763.30670	-22.60096	204.54369	-724.35791	12.89789	524.50494	-716.08868	234.31758	1037.92334	-713.84552	-9.91710	1018.04926				-805.24365	282.98859	870.84985				-792.49988	247.94585	569.17310	
